<svg width="328" height="305" viewBox="0 0 328 305" fill="none" xmlns="http://www.w3.org/2000/svg">
<rect width="327.925" height="305" fill="white"/>
<path d="M18.0674 24.093V25.2006H19.8536V26.2302H18.0674V27.4314H20.0876V28.5H16.7336V23.0244H20.0876V24.093H18.0674ZM25.9845 24.1476L23.2545 30.567H21.8193L22.8177 28.3518L21.0471 24.1476H22.5369L23.5431 26.8698L24.5415 24.1476H25.9845ZM31.1546 26.2536C31.1546 26.3784 31.1468 26.5084 31.1312 26.6436H28.1126C28.1334 26.914 28.2192 27.122 28.37 27.2676C28.526 27.408 28.7158 27.4782 28.9394 27.4782C29.2722 27.4782 29.5036 27.3378 29.6336 27.057H31.0532C30.9804 27.343 30.8478 27.6004 30.6554 27.8292C30.4682 28.058 30.2316 28.2374 29.9456 28.3674C29.6596 28.4974 29.3398 28.5624 28.9862 28.5624C28.5598 28.5624 28.1802 28.4714 27.8474 28.2894C27.5146 28.1074 27.2546 27.8474 27.0674 27.5094C26.8802 27.1714 26.7866 26.7762 26.7866 26.3238C26.7866 25.8714 26.8776 25.4762 27.0596 25.1382C27.2468 24.8002 27.5068 24.5402 27.8396 24.3582C28.1724 24.1762 28.5546 24.0852 28.9862 24.0852C29.4074 24.0852 29.7818 24.1736 30.1094 24.3504C30.437 24.5272 30.6918 24.7794 30.8738 25.107C31.061 25.4346 31.1546 25.8168 31.1546 26.2536ZM29.7896 25.9026C29.7896 25.6738 29.7116 25.4918 29.5556 25.3566C29.3996 25.2214 29.2046 25.1538 28.9706 25.1538C28.747 25.1538 28.5572 25.2188 28.4012 25.3488C28.2504 25.4788 28.1568 25.6634 28.1204 25.9026H29.7896ZM34.2139 28.5624C33.8343 28.5624 33.4963 28.4974 33.1999 28.3674C32.9035 28.2374 32.6695 28.0606 32.4979 27.837C32.3263 27.6082 32.2301 27.3534 32.2093 27.0726H33.5275C33.5431 27.2234 33.6133 27.3456 33.7381 27.4392C33.8629 27.5328 34.0163 27.5796 34.1983 27.5796C34.3647 27.5796 34.4921 27.5484 34.5805 27.486C34.6741 27.4184 34.7209 27.3326 34.7209 27.2286C34.7209 27.1038 34.6559 27.0128 34.5259 26.9556C34.3959 26.8932 34.1853 26.8256 33.8941 26.7528C33.5821 26.68 33.3221 26.6046 33.1141 26.5266C32.9061 26.4434 32.7267 26.316 32.5759 26.1444C32.4251 25.9676 32.3497 25.731 32.3497 25.4346C32.3497 25.185 32.4173 24.9588 32.5525 24.756C32.6929 24.548 32.8957 24.3842 33.1609 24.2646C33.4313 24.145 33.7511 24.0852 34.1203 24.0852C34.6663 24.0852 35.0953 24.2204 35.4073 24.4908C35.7245 24.7612 35.9065 25.12 35.9533 25.5672H34.7209C34.7001 25.4164 34.6325 25.2968 34.5181 25.2084C34.4089 25.12 34.2633 25.0758 34.0813 25.0758C33.9253 25.0758 33.8057 25.107 33.7225 25.1694C33.6393 25.2266 33.5977 25.3072 33.5977 25.4112C33.5977 25.536 33.6627 25.6296 33.7927 25.692C33.9279 25.7544 34.1359 25.8168 34.4167 25.8792C34.7391 25.9624 35.0017 26.0456 35.2045 26.1288C35.4073 26.2068 35.5841 26.3368 35.7349 26.5188C35.8909 26.6956 35.9715 26.9348 35.9767 27.2364C35.9767 27.4912 35.9039 27.72 35.7583 27.9228C35.6179 28.1204 35.4125 28.2764 35.1421 28.3908C34.8769 28.5052 34.5675 28.5624 34.2139 28.5624ZM40.0531 24.1008C40.5523 24.1008 40.9527 24.2672 41.2543 24.6C41.5559 24.9276 41.7067 25.38 41.7067 25.9572V28.5H40.3807V26.1366C40.3807 25.8454 40.3053 25.6192 40.1545 25.458C40.0037 25.2968 39.8009 25.2162 39.5461 25.2162C39.2913 25.2162 39.0885 25.2968 38.9377 25.458C38.7869 25.6192 38.7115 25.8454 38.7115 26.1366V28.5H37.3777V22.728H38.7115V24.7326C38.8467 24.5402 39.0313 24.3868 39.2653 24.2724C39.4993 24.158 39.7619 24.1008 40.0531 24.1008ZM42.9534 26.316C42.9534 25.8688 43.0366 25.4762 43.203 25.1382C43.3746 24.8002 43.606 24.5402 43.8972 24.3582C44.1884 24.1762 44.5134 24.0852 44.8722 24.0852C45.179 24.0852 45.4468 24.1476 45.6756 24.2724C45.9096 24.3972 46.089 24.561 46.2138 24.7638V24.1476H47.5476V28.5H46.2138V27.8838C46.0838 28.0866 45.9018 28.2504 45.6678 28.3752C45.439 28.5 45.1712 28.5624 44.8644 28.5624C44.5108 28.5624 44.1884 28.4714 43.8972 28.2894C43.606 28.1022 43.3746 27.8396 43.203 27.5016C43.0366 27.1584 42.9534 26.7632 42.9534 26.316ZM46.2138 26.3238C46.2138 25.991 46.1202 25.7284 45.933 25.536C45.751 25.3436 45.5274 25.2474 45.2622 25.2474C44.997 25.2474 44.7708 25.3436 44.5836 25.536C44.4016 25.7232 44.3106 25.9832 44.3106 26.316C44.3106 26.6488 44.4016 26.914 44.5836 27.1116C44.7708 27.304 44.997 27.4002 45.2622 27.4002C45.5274 27.4002 45.751 27.304 45.933 27.1116C46.1202 26.9192 46.2138 26.6566 46.2138 26.3238ZM48.8323 26.316C48.8323 25.8688 48.9155 25.4762 49.0819 25.1382C49.2535 24.8002 49.4849 24.5402 49.7761 24.3582C50.0673 24.1762 50.3923 24.0852 50.7511 24.0852C51.0371 24.0852 51.2971 24.145 51.5311 24.2646C51.7703 24.3842 51.9575 24.5454 52.0927 24.7482V22.728H53.4265V28.5H52.0927V27.876C51.9679 28.084 51.7885 28.2504 51.5545 28.3752C51.3257 28.5 51.0579 28.5624 50.7511 28.5624C50.3923 28.5624 50.0673 28.4714 49.7761 28.2894C49.4849 28.1022 49.2535 27.8396 49.0819 27.5016C48.9155 27.1584 48.8323 26.7632 48.8323 26.316ZM52.0927 26.3238C52.0927 25.991 51.9991 25.7284 51.8119 25.536C51.6299 25.3436 51.4063 25.2474 51.1411 25.2474C50.8759 25.2474 50.6497 25.3436 50.4625 25.536C50.2805 25.7232 50.1895 25.9832 50.1895 26.316C50.1895 26.6488 50.2805 26.914 50.4625 27.1116C50.6497 27.304 50.8759 27.4002 51.1411 27.4002C51.4063 27.4002 51.6299 27.304 51.8119 27.1116C51.9991 26.9192 52.0927 26.6566 52.0927 26.3238ZM56.9577 28.5624C56.5313 28.5624 56.1465 28.4714 55.8033 28.2894C55.4653 28.1074 55.1975 27.8474 54.9999 27.5094C54.8075 27.1714 54.7113 26.7762 54.7113 26.3238C54.7113 25.8766 54.8101 25.484 55.0077 25.146C55.2053 24.8028 55.4757 24.5402 55.8189 24.3582C56.1621 24.1762 56.5469 24.0852 56.9733 24.0852C57.3997 24.0852 57.7845 24.1762 58.1277 24.3582C58.4709 24.5402 58.7413 24.8028 58.9389 25.146C59.1365 25.484 59.2353 25.8766 59.2353 26.3238C59.2353 26.771 59.1339 27.1662 58.9311 27.5094C58.7335 27.8474 58.4605 28.1074 58.1121 28.2894C57.7689 28.4714 57.3841 28.5624 56.9577 28.5624ZM56.9577 27.408C57.2125 27.408 57.4283 27.3144 57.6051 27.1272C57.7871 26.94 57.8781 26.6722 57.8781 26.3238C57.8781 25.9754 57.7897 25.7076 57.6129 25.5204C57.4413 25.3332 57.2281 25.2396 56.9733 25.2396C56.7133 25.2396 56.4975 25.3332 56.3259 25.5204C56.1543 25.7024 56.0685 25.9702 56.0685 26.3238C56.0685 26.6722 56.1517 26.94 56.3181 27.1272C56.4897 27.3144 56.7029 27.408 56.9577 27.408ZM66.7757 24.1476L65.5979 28.5H64.1237L63.4373 25.6764L62.7275 28.5H61.2611L60.0755 24.1476H61.4093L62.0255 27.2598L62.7587 24.1476H64.1705L64.9115 27.2442L65.5199 24.1476H66.7757ZM68.4933 28.5624C68.2593 28.5624 68.0669 28.4948 67.9161 28.3596C67.7705 28.2192 67.6977 28.0476 67.6977 27.8448C67.6977 27.6368 67.7705 27.4626 67.9161 27.3222C68.0669 27.1818 68.2593 27.1116 68.4933 27.1116C68.7221 27.1116 68.9093 27.1818 69.0549 27.3222C69.2057 27.4626 69.2811 27.6368 69.2811 27.8448C69.2811 28.0476 69.2057 28.2192 69.0549 28.3596C68.9093 28.4948 68.7221 28.5624 68.4933 28.5624ZM68.4933 25.3878C68.2593 25.3878 68.0669 25.3202 67.9161 25.185C67.7705 25.0446 67.6977 24.873 67.6977 24.6702C67.6977 24.4622 67.7705 24.288 67.9161 24.1476C68.0669 24.0072 68.2593 23.937 68.4933 23.937C68.7221 23.937 68.9093 24.0072 69.0549 24.1476C69.2057 24.288 69.2811 24.4622 69.2811 24.6702C69.2811 24.873 69.2057 25.0446 69.0549 25.185C68.9093 25.3202 68.7221 25.3878 68.4933 25.3878Z" fill="black"/>
<path d="M20.0486 104.017C20.3658 104.085 20.6206 104.243 20.813 104.493C21.0054 104.737 21.1016 105.018 21.1016 105.335C21.1016 105.793 20.9404 106.157 20.618 106.427C20.3008 106.692 19.8562 106.825 19.2842 106.825H16.7336V101.349H19.1984C19.7548 101.349 20.189 101.477 20.501 101.732C20.8182 101.986 20.9768 102.332 20.9768 102.769C20.9768 103.091 20.891 103.359 20.7194 103.572C20.553 103.786 20.3294 103.934 20.0486 104.017ZM18.0674 103.565H18.941C19.1594 103.565 19.3258 103.518 19.4402 103.424C19.5598 103.325 19.6196 103.182 19.6196 102.995C19.6196 102.808 19.5598 102.665 19.4402 102.566C19.3258 102.467 19.1594 102.418 18.941 102.418H18.0674V103.565ZM19.0502 105.749C19.2738 105.749 19.4454 105.699 19.565 105.6C19.6898 105.496 19.7522 105.348 19.7522 105.156C19.7522 104.963 19.6872 104.813 19.5572 104.703C19.4324 104.594 19.2582 104.54 19.0346 104.54H18.0674V105.749H19.0502ZM23.794 101.053V106.825H22.4602V101.053H23.794ZM29.6434 102.473V106.825H28.3096V106.232C28.1744 106.425 27.9898 106.581 27.7558 106.7C27.527 106.815 27.2722 106.872 26.9914 106.872C26.6586 106.872 26.3648 106.799 26.11 106.653C25.8552 106.503 25.6576 106.287 25.5172 106.006C25.3768 105.725 25.3066 105.395 25.3066 105.015V102.473H26.6326V104.836C26.6326 105.127 26.708 105.353 26.8588 105.515C27.0096 105.676 27.2124 105.756 27.4672 105.756C27.7272 105.756 27.9326 105.676 28.0834 105.515C28.2342 105.353 28.3096 105.127 28.3096 104.836V102.473H29.6434ZM32.9571 106.887C32.5775 106.887 32.2395 106.822 31.9431 106.692C31.6467 106.562 31.4127 106.386 31.2411 106.162C31.0695 105.933 30.9733 105.678 30.9525 105.398H32.2707C32.2863 105.548 32.3565 105.671 32.4813 105.764C32.6061 105.858 32.7595 105.905 32.9415 105.905C33.1079 105.905 33.2353 105.873 33.3237 105.811C33.4173 105.743 33.4641 105.658 33.4641 105.554C33.4641 105.429 33.3991 105.338 33.2691 105.281C33.1391 105.218 32.9285 105.151 32.6373 105.078C32.3253 105.005 32.0653 104.93 31.8573 104.852C31.6493 104.768 31.4699 104.641 31.3191 104.469C31.1683 104.293 31.0929 104.056 31.0929 103.76C31.0929 103.51 31.1605 103.284 31.2957 103.081C31.4361 102.873 31.6389 102.709 31.9041 102.59C32.1745 102.47 32.4943 102.41 32.8635 102.41C33.4095 102.41 33.8385 102.545 34.1505 102.816C34.4677 103.086 34.6497 103.445 34.6965 103.892H33.4641C33.4433 103.741 33.3757 103.622 33.2613 103.533C33.1521 103.445 33.0065 103.401 32.8245 103.401C32.6685 103.401 32.5489 103.432 32.4657 103.494C32.3825 103.552 32.3409 103.632 32.3409 103.736C32.3409 103.861 32.4059 103.955 32.5359 104.017C32.6711 104.079 32.8791 104.142 33.1599 104.204C33.4823 104.287 33.7449 104.371 33.9477 104.454C34.1505 104.532 34.3273 104.662 34.4781 104.844C34.6341 105.021 34.7147 105.26 34.7199 105.561C34.7199 105.816 34.6471 106.045 34.5015 106.248C34.3611 106.445 34.1557 106.601 33.8853 106.716C33.6201 106.83 33.3107 106.887 32.9571 106.887ZM38.7963 102.426C39.2955 102.426 39.6959 102.592 39.9975 102.925C40.2991 103.253 40.4499 103.705 40.4499 104.282V106.825H39.1239V104.462C39.1239 104.17 39.0485 103.944 38.8977 103.783C38.7469 103.622 38.5441 103.541 38.2893 103.541C38.0345 103.541 37.8317 103.622 37.6809 103.783C37.5301 103.944 37.4547 104.17 37.4547 104.462V106.825H36.1209V101.053H37.4547V103.058C37.5899 102.865 37.7745 102.712 38.0085 102.597C38.2425 102.483 38.5051 102.426 38.7963 102.426ZM46.1809 106.887C45.7545 106.887 45.3697 106.796 45.0265 106.614C44.6885 106.432 44.4207 106.172 44.2231 105.834C44.0307 105.496 43.9345 105.101 43.9345 104.649C43.9345 104.202 44.0333 103.809 44.2309 103.471C44.4285 103.128 44.6989 102.865 45.0421 102.683C45.3853 102.501 45.7701 102.41 46.1965 102.41C46.6229 102.41 47.0077 102.501 47.3509 102.683C47.6941 102.865 47.9645 103.128 48.1621 103.471C48.3597 103.809 48.4585 104.202 48.4585 104.649C48.4585 105.096 48.3571 105.491 48.1543 105.834C47.9567 106.172 47.6837 106.432 47.3353 106.614C46.9921 106.796 46.6073 106.887 46.1809 106.887ZM46.1809 105.733C46.4357 105.733 46.6515 105.639 46.8283 105.452C47.0103 105.265 47.1013 104.997 47.1013 104.649C47.1013 104.3 47.0129 104.033 46.8361 103.845C46.6645 103.658 46.4513 103.565 46.1965 103.565C45.9365 103.565 45.7207 103.658 45.5491 103.845C45.3775 104.027 45.2917 104.295 45.2917 104.649C45.2917 104.997 45.3749 105.265 45.5413 105.452C45.7129 105.639 45.9261 105.733 46.1809 105.733ZM52.4031 102.426C52.9127 102.426 53.3183 102.592 53.6199 102.925C53.9267 103.253 54.0801 103.705 54.0801 104.282V106.825H52.7541V104.462C52.7541 104.17 52.6787 103.944 52.5279 103.783C52.3771 103.622 52.1743 103.541 51.9195 103.541C51.6647 103.541 51.4619 103.622 51.3111 103.783C51.1603 103.944 51.0849 104.17 51.0849 104.462V106.825H49.7511V102.473H51.0849V103.05C51.2201 102.857 51.4021 102.707 51.6309 102.597C51.8597 102.483 52.1171 102.426 52.4031 102.426ZM56.2159 106.887C55.9819 106.887 55.7895 106.82 55.6387 106.685C55.4931 106.544 55.4203 106.373 55.4203 106.17C55.4203 105.962 55.4931 105.788 55.6387 105.647C55.7895 105.507 55.9819 105.437 56.2159 105.437C56.4447 105.437 56.6319 105.507 56.7775 105.647C56.9283 105.788 57.0037 105.962 57.0037 106.17C57.0037 106.373 56.9283 106.544 56.7775 106.685C56.6319 106.82 56.4447 106.887 56.2159 106.887ZM56.2159 103.713C55.9819 103.713 55.7895 103.645 55.6387 103.51C55.4931 103.37 55.4203 103.198 55.4203 102.995C55.4203 102.787 55.4931 102.613 55.6387 102.473C55.7895 102.332 55.9819 102.262 56.2159 102.262C56.4447 102.262 56.6319 102.332 56.7775 102.473C56.9283 102.613 57.0037 102.787 57.0037 102.995C57.0037 103.198 56.9283 103.37 56.7775 103.51C56.6319 103.645 56.4447 103.713 56.2159 103.713Z" fill="black"/>
<path d="M18.0674 195.495H19.8146V196.525H16.7336V191.049H18.0674V195.495ZM21.7066 191.72C21.4726 191.72 21.2802 191.653 21.1294 191.517C20.9838 191.377 20.911 191.205 20.911 191.003C20.911 190.795 20.9838 190.623 21.1294 190.488C21.2802 190.347 21.4726 190.277 21.7066 190.277C21.9354 190.277 22.1226 190.347 22.2682 190.488C22.419 190.623 22.4944 190.795 22.4944 191.003C22.4944 191.205 22.419 191.377 22.2682 191.517C22.1226 191.653 21.9354 191.72 21.7066 191.72ZM22.3696 192.173V196.525H21.0358V192.173H22.3696ZM25.255 192.789C25.385 192.586 25.5644 192.422 25.7932 192.297C26.022 192.173 26.2898 192.11 26.5966 192.11C26.9554 192.11 27.2804 192.201 27.5716 192.383C27.8628 192.565 28.0916 192.825 28.258 193.163C28.4296 193.501 28.5154 193.894 28.5154 194.341C28.5154 194.788 28.4296 195.183 28.258 195.527C28.0916 195.865 27.8628 196.127 27.5716 196.314C27.2804 196.496 26.9554 196.587 26.5966 196.587C26.295 196.587 26.0272 196.525 25.7932 196.4C25.5644 196.275 25.385 196.114 25.255 195.917V198.6H23.9212V192.173H25.255V192.789ZM27.1582 194.341C27.1582 194.008 27.0646 193.748 26.8774 193.561C26.6954 193.369 26.4692 193.272 26.1988 193.272C25.9336 193.272 25.7074 193.369 25.5202 193.561C25.3382 193.753 25.2472 194.016 25.2472 194.349C25.2472 194.682 25.3382 194.944 25.5202 195.137C25.7074 195.329 25.9336 195.425 26.1988 195.425C26.464 195.425 26.6902 195.329 26.8774 195.137C27.0646 194.939 27.1582 194.674 27.1582 194.341ZM31.5707 196.587C31.1911 196.587 30.8531 196.522 30.5567 196.392C30.2603 196.262 30.0263 196.086 29.8547 195.862C29.6831 195.633 29.5869 195.378 29.5661 195.098H30.8843C30.8999 195.248 30.9701 195.371 31.0949 195.464C31.2197 195.558 31.3731 195.605 31.5551 195.605C31.7215 195.605 31.8489 195.573 31.9373 195.511C32.0309 195.443 32.0777 195.358 32.0777 195.254C32.0777 195.129 32.0127 195.038 31.8827 194.981C31.7527 194.918 31.5421 194.851 31.2509 194.778C30.9389 194.705 30.6789 194.63 30.4709 194.552C30.2629 194.468 30.0835 194.341 29.9327 194.169C29.7819 193.993 29.7065 193.756 29.7065 193.46C29.7065 193.21 29.7741 192.984 29.9093 192.781C30.0497 192.573 30.2525 192.409 30.5177 192.29C30.7881 192.17 31.1079 192.11 31.4771 192.11C32.0231 192.11 32.4521 192.245 32.7641 192.516C33.0813 192.786 33.2633 193.145 33.3101 193.592H32.0777C32.0569 193.441 31.9893 193.322 31.8749 193.233C31.7657 193.145 31.6201 193.101 31.4381 193.101C31.2821 193.101 31.1625 193.132 31.0793 193.194C30.9961 193.252 30.9545 193.332 30.9545 193.436C30.9545 193.561 31.0195 193.655 31.1495 193.717C31.2847 193.779 31.4927 193.842 31.7735 193.904C32.0959 193.987 32.3585 194.071 32.5613 194.154C32.7641 194.232 32.9409 194.362 33.0917 194.544C33.2477 194.721 33.3283 194.96 33.3335 195.261C33.3335 195.516 33.2607 195.745 33.1151 195.948C32.9747 196.145 32.7693 196.301 32.4989 196.416C32.2337 196.53 31.9243 196.587 31.5707 196.587ZM37.1603 195.394V196.525H36.4817C35.9981 196.525 35.6211 196.408 35.3507 196.174C35.0803 195.935 34.9451 195.547 34.9451 195.012V193.28H34.4147V192.173H34.9451V191.112H36.2789V192.173H37.1525V193.28H36.2789V195.027C36.2789 195.157 36.3101 195.251 36.3725 195.308C36.4349 195.365 36.5389 195.394 36.6845 195.394H37.1603ZM39.1591 191.72C38.9251 191.72 38.7327 191.653 38.5819 191.517C38.4363 191.377 38.3635 191.205 38.3635 191.003C38.3635 190.795 38.4363 190.623 38.5819 190.488C38.7327 190.347 38.9251 190.277 39.1591 190.277C39.3879 190.277 39.5751 190.347 39.7207 190.488C39.8715 190.623 39.9469 190.795 39.9469 191.003C39.9469 191.205 39.8715 191.377 39.7207 191.517C39.5751 191.653 39.3879 191.72 39.1591 191.72ZM39.8221 192.173V196.525H38.4883V192.173H39.8221ZM41.1085 194.349C41.1085 193.896 41.1995 193.501 41.3815 193.163C41.5687 192.825 41.8261 192.565 42.1537 192.383C42.4865 192.201 42.8661 192.11 43.2925 192.11C43.8385 192.11 44.2935 192.253 44.6575 192.539C45.0267 192.825 45.2685 193.228 45.3829 193.748H43.9633C43.8437 193.415 43.6123 193.249 43.2691 193.249C43.0247 193.249 42.8297 193.345 42.6841 193.538C42.5385 193.725 42.4657 193.995 42.4657 194.349C42.4657 194.702 42.5385 194.975 42.6841 195.168C42.8297 195.355 43.0247 195.449 43.2691 195.449C43.6123 195.449 43.8437 195.282 43.9633 194.949H45.3829C45.2685 195.459 45.0267 195.859 44.6575 196.151C44.2883 196.442 43.8333 196.587 43.2925 196.587C42.8661 196.587 42.4865 196.496 42.1537 196.314C41.8261 196.132 41.5687 195.872 41.3815 195.534C41.1995 195.196 41.1085 194.801 41.1085 194.349ZM49.3411 196.525L48.0151 194.7V196.525H46.6813V190.753H48.0151V193.943L49.3333 192.173H50.9791L49.1695 194.357L50.9947 196.525H49.3411ZM52.712 196.587C52.478 196.587 52.2856 196.52 52.1348 196.385C51.9892 196.244 51.9164 196.073 51.9164 195.87C51.9164 195.662 51.9892 195.488 52.1348 195.347C52.2856 195.207 52.478 195.137 52.712 195.137C52.9408 195.137 53.128 195.207 53.2736 195.347C53.4244 195.488 53.4998 195.662 53.4998 195.87C53.4998 196.073 53.4244 196.244 53.2736 196.385C53.128 196.52 52.9408 196.587 52.712 196.587ZM52.712 193.413C52.478 193.413 52.2856 193.345 52.1348 193.21C51.9892 193.07 51.9164 192.898 51.9164 192.695C51.9164 192.487 51.9892 192.313 52.1348 192.173C52.2856 192.032 52.478 191.962 52.712 191.962C52.9408 191.962 53.128 192.032 53.2736 192.173C53.4244 192.313 53.4998 192.487 53.4998 192.695C53.4998 192.898 53.4244 193.07 53.2736 193.21C53.128 193.345 52.9408 193.413 52.712 193.413Z" fill="black"/>
<path fill-rule="evenodd" clip-rule="evenodd" d="M47.1249 55.7375C46.4749 47.7753 26.9749 38.1875 18.3624 47.7753C16.4124 50.2128 15.2424 53.0076 17.7124 55.7376C20.7999 59.1501 28.2749 61.1001 34.4499 60.9376C40.6249 60.7751 45.0124 58.9875 47.1249 55.7375ZM45.1749 55.5751C41.7083 51.0251 32.0124 44.4276 20.9624 54.4376C24.9708 57.2542 34.9699 61.75 42.8999 57.2L44.1999 56.3875L45.1749 55.5751Z" fill="url(#paint0_linear_102_272)"/>
<path fill-rule="evenodd" clip-rule="evenodd" d="M70.1998 55.8506C70.8498 47.8883 90.3498 38.3006 98.9623 47.8884C100.912 50.3259 102.082 53.1206 99.6123 55.8506C96.5248 59.2631 89.0498 61.2131 82.8748 61.0506C76.6998 60.8881 72.3123 59.1006 70.1998 55.8506ZM72.1498 55.6881C75.6165 51.1381 85.3123 44.5406 96.3623 54.5506C92.354 57.3673 82.3548 61.8631 74.4248 57.3131L73.1248 56.5006L72.1498 55.6881Z" fill="url(#paint1_linear_102_272)"/>
<path d="M20.9625 54.275C32.5325 44.785 41.8167 51.0791 45.0125 55.4125C39.975 47.2874 32.0125 48.2625 29.7375 48.75C25.8375 49.5857 20.15 52.2708 17.0625 53.7875C18.8825 54.6975 20.8 54.4917 20.9625 54.275Z" fill="black" stroke="black" stroke-width="0.325"/>
<path d="M96.2001 54.5887C84.6301 45.0987 75.3459 51.3929 72.1501 55.7262C77.1876 47.6012 85.1501 48.5762 87.4251 49.0637C91.3251 49.8994 97.0126 52.5846 100.1 54.1012C98.2801 55.0112 96.3626 54.8054 96.2001 54.5887Z" fill="black" stroke="black" stroke-width="0.325"/>
<path fill-rule="evenodd" clip-rule="evenodd" d="M152.425 55.7375C151.775 47.7753 132.275 38.1875 123.662 47.7753C121.712 50.2128 120.542 53.0076 123.012 55.7376C126.1 59.1501 133.575 61.1001 139.75 60.9376C145.925 60.7751 150.312 58.9875 152.425 55.7375ZM150.474 55.5751C147.008 51.0251 137.312 44.4276 126.262 54.4376C130.27 57.2542 140.269 61.75 148.199 57.2L149.499 56.3875L150.474 55.5751Z" fill="url(#paint2_linear_102_272)"/>
<path fill-rule="evenodd" clip-rule="evenodd" d="M175.5 55.8506C176.15 47.8883 195.65 38.3006 204.263 47.8884C206.213 50.3259 207.383 53.1206 204.913 55.8506C201.825 59.2631 194.35 61.2131 188.175 61.0506C182 60.8881 177.613 59.1006 175.5 55.8506ZM177.45 55.6881C180.917 51.1381 190.613 44.5406 201.663 54.5506C197.655 57.3673 187.655 61.8631 179.725 57.3131L178.425 56.5006L177.45 55.6881Z" fill="url(#paint3_linear_102_272)"/>
<path d="M126.262 54.275C137.832 44.785 147.116 51.0791 150.312 55.4125C145.275 47.2874 137.312 48.2625 135.037 48.75C131.137 49.5857 125.45 52.2708 122.362 53.7875C124.182 54.6975 126.1 54.4917 126.262 54.275Z" fill="black" stroke="black" stroke-width="0.325"/>
<path d="M201.5 54.5887C189.93 45.0987 180.646 51.3929 177.45 55.7262C182.487 47.6012 190.45 48.5762 192.725 49.0637C196.625 49.8994 202.312 52.5846 205.4 54.1012C203.58 55.0112 201.662 54.8054 201.5 54.5887Z" fill="black" stroke="black" stroke-width="0.325"/>
<path fill-rule="evenodd" clip-rule="evenodd" d="M257.725 55.7375C257.075 47.7753 237.575 38.1875 228.963 47.7753C227.013 50.2128 225.843 53.0076 228.313 55.7376C231.4 59.1501 238.875 61.1001 245.05 60.9376C251.225 60.7751 255.613 58.9875 257.725 55.7375ZM255.775 55.5751C252.308 51.0251 242.612 44.4276 231.562 54.4376C235.57 57.2542 245.57 61.75 253.5 57.2L254.8 56.3875L255.775 55.5751Z" fill="url(#paint4_linear_102_272)"/>
<path fill-rule="evenodd" clip-rule="evenodd" d="M280.8 55.8506C281.45 47.8883 300.95 38.3006 309.563 47.8884C311.513 50.3259 312.683 53.1206 310.213 55.8506C307.125 59.2631 299.65 61.2131 293.475 61.0506C287.3 60.8881 282.913 59.1006 280.8 55.8506ZM282.751 55.6881C286.217 51.1381 295.913 44.5406 306.963 54.5506C302.955 57.3673 292.956 61.8631 285.026 57.3131L283.726 56.5006L282.751 55.6881Z" fill="url(#paint5_linear_102_272)"/>
<path d="M231.563 54.275C243.133 44.785 252.417 51.0791 255.613 55.4125C250.575 47.2874 242.613 48.2625 240.338 48.75C236.438 49.5857 230.75 52.2708 227.663 53.7875C229.483 54.6975 231.4 54.4917 231.563 54.275Z" fill="black" stroke="black" stroke-width="0.325"/>
<path d="M306.8 54.5887C295.23 45.0987 285.946 51.3929 282.75 55.7262C287.788 47.6012 295.75 48.5762 298.025 49.0637C301.925 49.8994 307.613 52.5846 310.7 54.1012C308.88 55.0112 306.963 54.8054 306.8 54.5887Z" fill="black" stroke="black" stroke-width="0.325"/>
<g filter="url(#filter0_d_102_272)">
<rect x="50.7002" y="65.6501" width="16.25" height="16.25" rx="8.125" fill="#80C2BE"/>
<path d="M57.106 71.8367V70.1831H59.9868V77.7751H58.1356V71.8367H57.106Z" fill="white"/>
</g>
<g filter="url(#filter1_d_102_272)">
<rect x="156" y="65.3252" width="16.25" height="16.25" rx="8.125" fill="#80C2BE"/>
<path d="M161.531 76.0254C161.766 75.8382 161.874 75.7515 161.853 75.7654C162.532 75.2038 163.066 74.7427 163.455 74.3822C163.85 74.0217 164.183 73.6438 164.453 73.2486C164.723 72.8534 164.859 72.4686 164.859 72.0942C164.859 71.8099 164.793 71.5881 164.661 71.4286C164.529 71.2691 164.332 71.1894 164.068 71.1894C163.805 71.1894 163.597 71.2899 163.444 71.491C163.299 71.6851 163.226 71.9625 163.226 72.323H161.51C161.524 71.7337 161.648 71.2414 161.884 70.8462C162.127 70.451 162.442 70.1598 162.831 69.9726C163.226 69.7854 163.663 69.6918 164.141 69.6918C164.966 69.6918 165.587 69.9033 166.003 70.3262C166.426 70.7491 166.637 71.3003 166.637 71.9798C166.637 72.7217 166.384 73.4115 165.878 74.0494C165.372 74.6803 164.727 75.2974 163.943 75.9006H166.751V77.3462H161.531V76.0254Z" fill="white"/>
</g>
<g filter="url(#filter2_d_102_272)">
<rect x="261.3" y="65.3252" width="16.25" height="16.25" rx="8.125" fill="#80C2BE"/>
<path d="M266.455 72.0006C266.483 71.2587 266.726 70.6867 267.183 70.2846C267.641 69.8825 268.261 69.6814 269.045 69.6814C269.565 69.6814 270.009 69.7715 270.376 69.9518C270.75 70.1321 271.031 70.3782 271.218 70.6902C271.413 71.0022 271.51 71.3523 271.51 71.7406C271.51 72.1982 271.395 72.5726 271.166 72.8638C270.938 73.1481 270.671 73.3422 270.366 73.4462V73.4878C270.761 73.6195 271.073 73.8379 271.302 74.143C271.53 74.4481 271.645 74.8398 271.645 75.3182C271.645 75.7481 271.544 76.1294 271.343 76.4622C271.149 76.7881 270.861 77.0446 270.48 77.2318C270.106 77.419 269.658 77.5126 269.138 77.5126C268.306 77.5126 267.641 77.3081 267.142 76.899C266.649 76.4899 266.389 75.8729 266.362 75.0478H268.088C268.095 75.3529 268.182 75.5955 268.348 75.7758C268.514 75.9491 268.757 76.0358 269.076 76.0358C269.346 76.0358 269.554 75.9595 269.7 75.807C269.853 75.6475 269.929 75.4395 269.929 75.183C269.929 74.8502 269.821 74.611 269.606 74.4654C269.398 74.3129 269.062 74.2366 268.598 74.2366H268.265V72.791H268.598C268.951 72.791 269.235 72.7321 269.45 72.6142C269.672 72.4894 269.783 72.271 269.783 71.959C269.783 71.7094 269.714 71.5153 269.575 71.3766C269.437 71.2379 269.246 71.1686 269.003 71.1686C268.74 71.1686 268.542 71.2483 268.41 71.4078C268.286 71.5673 268.213 71.7649 268.192 72.0006H266.455Z" fill="white"/>
</g>
<path d="M26.447 126.587C28.917 128.277 32.4595 128.592 33.922 128.862C42.372 129.837 47.897 127.725 47.897 131.95C47.897 133.968 47.3553 140.021 45.7845 142.187C41.072 153.562 33.1095 150.8 28.072 149.825C23.4139 148.923 19.8387 144.192 18.647 140.887C15.8925 133.25 16.502 128.635 17.022 125.125C17.542 121.615 19.8387 122.471 20.922 123.337C21.7345 123.717 23.977 124.897 26.447 126.587Z" fill="#BE5155"/>
<path d="M94.0471 126.542C91.5771 128.232 88.0346 128.546 86.5721 128.817C78.1221 129.792 72.5971 127.679 72.5971 131.904C72.5971 133.922 73.1388 139.975 74.7096 142.142C79.4221 153.517 87.3846 150.754 92.4221 149.779C97.0802 148.878 100.655 144.146 101.847 140.842C104.602 133.204 103.992 128.589 103.472 125.079C102.952 121.569 100.655 122.425 99.5721 123.292C98.7596 123.671 96.5171 124.852 94.0471 126.542Z" fill="#BE5155"/>
<path d="M130.041 126.587C132.511 128.277 136.053 128.592 137.516 128.862C145.966 129.837 151.491 127.725 151.491 131.95C151.491 133.968 150.949 140.021 149.378 142.187C144.666 153.562 136.703 150.8 131.666 149.825C127.008 148.923 123.432 144.192 122.241 140.887C119.486 133.25 120.096 128.635 120.616 125.125C121.136 121.615 123.432 122.471 124.516 123.337C125.328 123.717 127.571 124.897 130.041 126.587Z" fill="#DB7572"/>
<path d="M197.641 126.542C195.171 128.232 191.628 128.546 190.166 128.817C181.716 129.792 176.191 127.679 176.191 131.904C176.191 133.922 176.733 139.975 178.303 142.142C183.016 153.517 190.978 150.754 196.016 149.779C200.674 148.878 204.249 144.146 205.441 140.842C208.195 133.204 207.586 128.589 207.066 125.079C206.546 121.569 204.249 122.425 203.166 123.292C202.353 123.671 200.111 124.852 197.641 126.542Z" fill="#DB7572"/>
<path d="M233.635 126.587C236.105 128.277 239.647 128.592 241.11 128.862C249.56 129.837 255.085 127.725 255.085 131.95C255.085 133.968 254.543 140.021 252.972 142.187C248.26 153.562 240.297 150.8 235.26 149.825C230.601 148.923 227.026 144.192 225.835 140.887C223.08 133.25 223.69 128.635 224.21 125.125C224.73 121.615 227.026 122.471 228.11 123.337C228.922 123.717 231.165 124.897 233.635 126.587Z" fill="#D99182"/>
<path d="M301.235 126.542C298.765 128.232 295.222 128.546 293.76 128.817C285.31 129.792 279.785 127.679 279.785 131.904C279.785 133.922 280.326 139.975 281.897 142.142C286.61 153.517 294.572 150.754 299.61 149.779C304.268 148.878 307.843 144.146 309.035 140.842C311.789 133.204 311.18 128.589 310.66 125.079C310.14 121.569 307.843 122.425 306.76 123.292C305.947 123.671 303.705 124.852 301.235 126.542Z" fill="#D99182"/>
<g filter="url(#filter3_d_102_272)">
<rect x="51.3496" y="159.25" width="16.25" height="16.25" rx="8.125" fill="#80C2BE"/>
<path d="M55.9842 170.023V168.588L59.2706 163.887H61.257V168.484H62.1098V170.023H61.257V171.375H59.4786V170.023H55.9842ZM59.6034 165.842L57.8562 168.484H59.6034V165.842Z" fill="white"/>
</g>
<g filter="url(#filter4_d_102_272)">
<rect x="155.675" y="159.575" width="16.25" height="16.25" rx="8.125" fill="#80C2BE"/>
<path d="M166.113 165.658H162.869V167.093C163.007 166.94 163.201 166.815 163.451 166.718C163.701 166.621 163.971 166.573 164.262 166.573C164.782 166.573 165.212 166.691 165.552 166.926C165.898 167.162 166.152 167.467 166.311 167.842C166.47 168.216 166.55 168.622 166.55 169.058C166.55 169.87 166.321 170.514 165.864 170.993C165.406 171.464 164.761 171.7 163.929 171.7C163.375 171.7 162.893 171.606 162.484 171.419C162.075 171.225 161.759 170.958 161.537 170.618C161.316 170.279 161.194 169.887 161.173 169.443H162.91C162.952 169.658 163.052 169.838 163.212 169.984C163.371 170.123 163.59 170.192 163.867 170.192C164.193 170.192 164.436 170.088 164.595 169.88C164.754 169.672 164.834 169.395 164.834 169.048C164.834 168.708 164.751 168.448 164.585 168.268C164.418 168.088 164.176 167.998 163.857 167.998C163.621 167.998 163.427 168.056 163.274 168.174C163.122 168.285 163.021 168.434 162.973 168.622H161.257V164.098H166.113V165.658Z" fill="white"/>
</g>
<g filter="url(#filter5_d_102_272)">
<rect x="259.35" y="159.25" width="16.25" height="16.25" rx="8.125" fill="#80C2BE"/>
<path d="M268.197 165.832C268.142 165.575 268.044 165.385 267.906 165.26C267.767 165.128 267.57 165.062 267.313 165.062C266.918 165.062 266.634 165.236 266.46 165.582C266.287 165.922 266.197 166.463 266.19 167.205C266.342 166.962 266.561 166.771 266.845 166.633C267.136 166.494 267.455 166.425 267.802 166.425C268.481 166.425 269.026 166.64 269.435 167.069C269.851 167.499 270.059 168.099 270.059 168.869C270.059 169.375 269.955 169.818 269.747 170.2C269.546 170.581 269.247 170.879 268.852 171.094C268.464 171.309 268.003 171.417 267.469 171.417C266.401 171.417 265.659 171.084 265.243 170.418C264.827 169.746 264.619 168.782 264.619 167.527C264.619 166.21 264.838 165.232 265.275 164.594C265.718 163.949 266.426 163.627 267.396 163.627C267.916 163.627 268.353 163.731 268.707 163.939C269.067 164.14 269.338 164.407 269.518 164.74C269.705 165.073 269.816 165.437 269.851 165.832H268.197ZM267.375 167.829C267.077 167.829 266.828 167.919 266.627 168.099C266.432 168.272 266.335 168.522 266.335 168.848C266.335 169.181 266.426 169.441 266.606 169.628C266.793 169.815 267.056 169.909 267.396 169.909C267.701 169.909 267.94 169.818 268.114 169.638C268.294 169.451 268.384 169.198 268.384 168.879C268.384 168.553 268.298 168.297 268.124 168.109C267.951 167.922 267.701 167.829 267.375 167.829Z" fill="white"/>
</g>
<g filter="url(#filter6_d_102_272)">
<rect x="48.4248" y="248.95" width="16.25" height="16.25" rx="8.125" fill="#80C2BE"/>
<path d="M58.8642 254.814L56.2538 261.075H54.4338L57.0754 255.012H53.841V253.493H58.8642V254.814Z" fill="white"/>
</g>
<g filter="url(#filter7_d_102_272)">
<rect x="155.675" y="248.625" width="16.25" height="16.25" rx="8.125" fill="#80C2BE"/>
<path d="M162.016 256.673C161.364 256.327 161.038 255.782 161.038 255.04C161.038 254.666 161.135 254.326 161.329 254.021C161.524 253.709 161.818 253.463 162.213 253.283C162.609 253.096 163.094 253.002 163.669 253.002C164.245 253.002 164.727 253.096 165.115 253.283C165.51 253.463 165.805 253.709 165.999 254.021C166.193 254.326 166.29 254.666 166.29 255.04C166.29 255.415 166.2 255.741 166.02 256.018C165.846 256.295 165.611 256.514 165.313 256.673C165.687 256.853 165.975 257.103 166.176 257.422C166.377 257.734 166.477 258.101 166.477 258.524C166.477 259.017 166.353 259.443 166.103 259.804C165.853 260.157 165.514 260.428 165.084 260.615C164.661 260.802 164.189 260.896 163.669 260.896C163.149 260.896 162.674 260.802 162.245 260.615C161.822 260.428 161.485 260.157 161.236 259.804C160.986 259.443 160.861 259.017 160.861 258.524C160.861 258.095 160.962 257.724 161.163 257.412C161.364 257.093 161.648 256.847 162.016 256.673ZM164.564 255.311C164.564 255.027 164.481 254.808 164.314 254.656C164.155 254.496 163.94 254.416 163.669 254.416C163.399 254.416 163.181 254.496 163.014 254.656C162.855 254.815 162.775 255.037 162.775 255.321C162.775 255.592 162.858 255.807 163.025 255.966C163.191 256.119 163.406 256.195 163.669 256.195C163.933 256.195 164.148 256.115 164.314 255.956C164.481 255.796 164.564 255.581 164.564 255.311ZM163.669 257.443C163.344 257.443 163.08 257.533 162.879 257.713C162.678 257.887 162.577 258.129 162.577 258.441C162.577 258.732 162.674 258.972 162.869 259.159C163.07 259.346 163.337 259.44 163.669 259.44C164.002 259.44 164.262 259.346 164.449 259.159C164.644 258.972 164.741 258.732 164.741 258.441C164.741 258.136 164.64 257.893 164.439 257.713C164.245 257.533 163.988 257.443 163.669 257.443Z" fill="white"/>
</g>
<g filter="url(#filter8_d_102_272)">
<rect x="259.35" y="248.3" width="16.25" height="16.25" rx="8.125" fill="#80C2BE"/>
<path d="M266.356 258.199C266.46 258.747 266.779 259.021 267.313 259.021C267.68 259.021 267.94 258.858 268.093 258.532C268.246 258.206 268.322 257.676 268.322 256.941C268.169 257.156 267.961 257.322 267.698 257.44C267.434 257.558 267.14 257.617 266.814 257.617C266.37 257.617 265.975 257.527 265.628 257.347C265.282 257.159 265.008 256.886 264.807 256.525C264.612 256.158 264.515 255.714 264.515 255.194C264.515 254.681 264.619 254.234 264.827 253.852C265.042 253.471 265.344 253.176 265.732 252.968C266.127 252.76 266.592 252.656 267.126 252.656C268.152 252.656 268.87 252.975 269.279 253.613C269.688 254.251 269.892 255.19 269.892 256.431C269.892 257.333 269.809 258.078 269.643 258.667C269.483 259.25 269.209 259.694 268.821 259.999C268.44 260.304 267.916 260.456 267.251 260.456C266.724 260.456 266.273 260.352 265.899 260.144C265.531 259.936 265.247 259.662 265.046 259.323C264.852 258.983 264.741 258.609 264.713 258.199H266.356ZM267.219 256.213C267.511 256.213 267.743 256.126 267.916 255.953C268.09 255.773 268.176 255.53 268.176 255.225C268.176 254.892 268.086 254.636 267.906 254.455C267.726 254.275 267.483 254.185 267.178 254.185C266.873 254.185 266.63 254.279 266.45 254.466C266.276 254.646 266.19 254.896 266.19 255.215C266.19 255.513 266.276 255.755 266.45 255.943C266.63 256.123 266.887 256.213 267.219 256.213Z" fill="white"/>
</g>
<path fill-rule="evenodd" clip-rule="evenodd" d="M18.5176 222.582C21.4133 221.108 24.668 219.452 33.7084 211.194C39.1005 206.269 42.0992 206.207 46.0118 206.127C46.6585 206.114 47.3302 206.1 48.0418 206.063C50.9012 205.917 55.3279 207.004 56.2834 207.602C58.4334 208.372 58.4334 208.372 62.3748 207.089L62.3751 207.089C67.0798 205.558 74.2001 206.918 77.0668 208.115C81.5402 209.517 84.5972 212.136 87.1703 214.341C87.895 214.962 88.5813 215.55 89.2501 216.068C93.5501 219.404 97.7307 222.226 101.075 223.252C100 223.594 97.4201 224.945 95.7001 227.613C93.5501 230.948 83.8751 239.414 71.6918 239.927C62.91 240.297 57.6656 240.134 53.8113 240.014C52.3183 239.967 51.034 239.927 49.8334 239.927C45.8755 239.927 39.4418 239.927 31.5584 235.053C24.864 230.914 22.5624 227.884 21.5816 226.594C21.4074 226.364 21.2748 226.19 21.1668 226.074C21.0963 225.998 21.0057 225.86 20.8905 225.685C20.3556 224.873 19.2887 223.252 17.2251 223.252C17.66 223.018 18.0848 222.802 18.5176 222.582ZM32.6334 223.765L32.6939 223.757C36.2976 223.328 43.4807 222.471 48.0418 220.43C49.4751 219.788 52.1984 219.66 54.4918 220.686C56.7851 221.712 62.614 220.857 64.8834 220.43C65.839 220.173 67.4634 219.814 69.1834 220.43C71.3334 221.199 81.3668 223.765 84.5918 223.765C85.3945 223.765 84.7985 223.797 83.3841 223.872C79.1162 224.1 67.3964 224.725 64.1668 226.074C60.7268 227.51 53.4168 226.416 51.2668 225.817C51.0151 225.767 50.7407 225.71 50.4435 225.649C47.2145 224.984 41.2962 223.765 32.6334 223.765Z" fill="url(#paint6_radial_102_272)"/>
<path fill-rule="evenodd" clip-rule="evenodd" d="M123.493 222.582C126.388 221.108 129.643 219.452 138.684 211.194C144.076 206.269 147.074 206.207 150.987 206.127C151.634 206.114 152.305 206.1 153.017 206.063C155.876 205.917 160.303 207.004 161.259 207.602C163.408 208.372 163.409 208.372 167.35 207.089L167.35 207.089C172.055 205.558 179.175 206.918 182.042 208.115C186.515 209.517 189.572 212.136 192.145 214.341C192.87 214.962 193.556 215.55 194.225 216.068C198.525 219.404 202.706 222.226 206.05 223.252C204.975 223.594 202.395 224.945 200.675 227.613C198.525 230.948 188.85 239.414 176.667 239.927C167.885 240.297 162.641 240.134 158.786 240.014C157.293 239.967 156.009 239.927 154.809 239.927C150.851 239.927 144.417 239.927 136.534 235.053C129.839 230.914 127.538 227.884 126.557 226.594C126.382 226.364 126.25 226.19 126.142 226.074C126.071 225.998 125.981 225.86 125.866 225.685C125.331 224.873 124.264 223.252 122.2 223.252C122.635 223.018 123.06 222.802 123.493 222.582ZM137.609 223.765L137.669 223.757C141.273 223.328 148.456 222.47 153.017 220.43C154.45 219.788 157.174 219.66 159.467 220.686C161.76 221.712 167.589 220.857 169.859 220.43C170.814 220.173 172.439 219.814 174.159 220.43C176.309 221.199 186.342 223.765 189.567 223.765C190.37 223.765 189.774 223.796 188.359 223.872C184.091 224.1 172.372 224.725 169.142 226.074C165.702 227.51 158.392 226.416 156.242 225.817C155.99 225.767 155.716 225.71 155.419 225.649C152.19 224.984 146.271 223.765 137.609 223.765Z" fill="url(#paint7_radial_102_272)"/>
<path fill-rule="evenodd" clip-rule="evenodd" d="M228.468 222.582C231.363 221.108 234.618 219.452 243.659 211.194C249.051 206.269 252.049 206.207 255.962 206.127C256.609 206.114 257.28 206.1 257.992 206.063C260.851 205.917 265.278 207.004 266.234 207.602C268.384 208.372 268.384 208.372 272.325 207.089L272.325 207.089C277.03 205.558 284.15 206.918 287.017 208.115C291.49 209.517 294.547 212.136 297.121 214.341C297.845 214.962 298.532 215.55 299.2 216.068C303.5 219.404 307.681 222.226 311.025 223.252C309.95 223.594 307.37 224.945 305.65 227.613C303.5 230.948 293.825 239.414 281.642 239.927C272.86 240.297 267.616 240.134 263.761 240.014C262.269 239.967 260.984 239.927 259.784 239.927C255.826 239.927 249.392 239.927 241.509 235.053C234.814 230.914 232.513 227.884 231.532 226.594C231.358 226.364 231.225 226.19 231.117 226.074C231.046 225.998 230.956 225.86 230.841 225.685C230.306 224.873 229.239 223.252 227.175 223.252C227.61 223.018 228.035 222.802 228.468 222.582ZM242.584 223.765L242.644 223.757C246.248 223.328 253.431 222.47 257.992 220.43C259.425 219.788 262.149 219.66 264.442 220.686C266.735 221.712 272.564 220.857 274.834 220.43C275.789 220.173 277.414 219.814 279.134 220.43C281.284 221.199 291.317 223.765 294.542 223.765C295.345 223.765 294.749 223.796 293.334 223.872C289.066 224.1 277.347 224.725 274.117 226.074C270.677 227.51 263.367 226.416 261.217 225.817C260.965 225.767 260.691 225.71 260.394 225.649C257.165 224.984 251.246 223.765 242.584 223.765Z" fill="url(#paint8_radial_102_272)"/>
<defs>
<filter id="filter0_d_102_272" x="49.4002" y="65.6501" width="18.85" height="18.85" filterUnits="userSpaceOnUse" color-interpolation-filters="sRGB">
<feFlood flood-opacity="0" result="BackgroundImageFix"/>
<feColorMatrix in="SourceAlpha" type="matrix" values="0 0 0 0 0 0 0 0 0 0 0 0 0 0 0 0 0 0 127 0" result="hardAlpha"/>
<feOffset dy="1.3"/>
<feGaussianBlur stdDeviation="0.65"/>
<feComposite in2="hardAlpha" operator="out"/>
<feColorMatrix type="matrix" values="0 0 0 0 0 0 0 0 0 0 0 0 0 0 0 0 0 0 0.25 0"/>
<feBlend mode="normal" in2="BackgroundImageFix" result="effect1_dropShadow_102_272"/>
<feBlend mode="normal" in="SourceGraphic" in2="effect1_dropShadow_102_272" result="shape"/>
</filter>
<filter id="filter1_d_102_272" x="154.7" y="65.3252" width="18.85" height="18.85" filterUnits="userSpaceOnUse" color-interpolation-filters="sRGB">
<feFlood flood-opacity="0" result="BackgroundImageFix"/>
<feColorMatrix in="SourceAlpha" type="matrix" values="0 0 0 0 0 0 0 0 0 0 0 0 0 0 0 0 0 0 127 0" result="hardAlpha"/>
<feOffset dy="1.3"/>
<feGaussianBlur stdDeviation="0.65"/>
<feComposite in2="hardAlpha" operator="out"/>
<feColorMatrix type="matrix" values="0 0 0 0 0 0 0 0 0 0 0 0 0 0 0 0 0 0 0.25 0"/>
<feBlend mode="normal" in2="BackgroundImageFix" result="effect1_dropShadow_102_272"/>
<feBlend mode="normal" in="SourceGraphic" in2="effect1_dropShadow_102_272" result="shape"/>
</filter>
<filter id="filter2_d_102_272" x="260" y="65.3252" width="18.85" height="18.85" filterUnits="userSpaceOnUse" color-interpolation-filters="sRGB">
<feFlood flood-opacity="0" result="BackgroundImageFix"/>
<feColorMatrix in="SourceAlpha" type="matrix" values="0 0 0 0 0 0 0 0 0 0 0 0 0 0 0 0 0 0 127 0" result="hardAlpha"/>
<feOffset dy="1.3"/>
<feGaussianBlur stdDeviation="0.65"/>
<feComposite in2="hardAlpha" operator="out"/>
<feColorMatrix type="matrix" values="0 0 0 0 0 0 0 0 0 0 0 0 0 0 0 0 0 0 0.25 0"/>
<feBlend mode="normal" in2="BackgroundImageFix" result="effect1_dropShadow_102_272"/>
<feBlend mode="normal" in="SourceGraphic" in2="effect1_dropShadow_102_272" result="shape"/>
</filter>
<filter id="filter3_d_102_272" x="50.0496" y="159.25" width="18.85" height="18.85" filterUnits="userSpaceOnUse" color-interpolation-filters="sRGB">
<feFlood flood-opacity="0" result="BackgroundImageFix"/>
<feColorMatrix in="SourceAlpha" type="matrix" values="0 0 0 0 0 0 0 0 0 0 0 0 0 0 0 0 0 0 127 0" result="hardAlpha"/>
<feOffset dy="1.3"/>
<feGaussianBlur stdDeviation="0.65"/>
<feComposite in2="hardAlpha" operator="out"/>
<feColorMatrix type="matrix" values="0 0 0 0 0 0 0 0 0 0 0 0 0 0 0 0 0 0 0.25 0"/>
<feBlend mode="normal" in2="BackgroundImageFix" result="effect1_dropShadow_102_272"/>
<feBlend mode="normal" in="SourceGraphic" in2="effect1_dropShadow_102_272" result="shape"/>
</filter>
<filter id="filter4_d_102_272" x="154.375" y="159.575" width="18.85" height="18.85" filterUnits="userSpaceOnUse" color-interpolation-filters="sRGB">
<feFlood flood-opacity="0" result="BackgroundImageFix"/>
<feColorMatrix in="SourceAlpha" type="matrix" values="0 0 0 0 0 0 0 0 0 0 0 0 0 0 0 0 0 0 127 0" result="hardAlpha"/>
<feOffset dy="1.3"/>
<feGaussianBlur stdDeviation="0.65"/>
<feComposite in2="hardAlpha" operator="out"/>
<feColorMatrix type="matrix" values="0 0 0 0 0 0 0 0 0 0 0 0 0 0 0 0 0 0 0.25 0"/>
<feBlend mode="normal" in2="BackgroundImageFix" result="effect1_dropShadow_102_272"/>
<feBlend mode="normal" in="SourceGraphic" in2="effect1_dropShadow_102_272" result="shape"/>
</filter>
<filter id="filter5_d_102_272" x="258.05" y="159.25" width="18.85" height="18.85" filterUnits="userSpaceOnUse" color-interpolation-filters="sRGB">
<feFlood flood-opacity="0" result="BackgroundImageFix"/>
<feColorMatrix in="SourceAlpha" type="matrix" values="0 0 0 0 0 0 0 0 0 0 0 0 0 0 0 0 0 0 127 0" result="hardAlpha"/>
<feOffset dy="1.3"/>
<feGaussianBlur stdDeviation="0.65"/>
<feComposite in2="hardAlpha" operator="out"/>
<feColorMatrix type="matrix" values="0 0 0 0 0 0 0 0 0 0 0 0 0 0 0 0 0 0 0.25 0"/>
<feBlend mode="normal" in2="BackgroundImageFix" result="effect1_dropShadow_102_272"/>
<feBlend mode="normal" in="SourceGraphic" in2="effect1_dropShadow_102_272" result="shape"/>
</filter>
<filter id="filter6_d_102_272" x="47.1248" y="248.95" width="18.85" height="18.85" filterUnits="userSpaceOnUse" color-interpolation-filters="sRGB">
<feFlood flood-opacity="0" result="BackgroundImageFix"/>
<feColorMatrix in="SourceAlpha" type="matrix" values="0 0 0 0 0 0 0 0 0 0 0 0 0 0 0 0 0 0 127 0" result="hardAlpha"/>
<feOffset dy="1.3"/>
<feGaussianBlur stdDeviation="0.65"/>
<feComposite in2="hardAlpha" operator="out"/>
<feColorMatrix type="matrix" values="0 0 0 0 0 0 0 0 0 0 0 0 0 0 0 0 0 0 0.25 0"/>
<feBlend mode="normal" in2="BackgroundImageFix" result="effect1_dropShadow_102_272"/>
<feBlend mode="normal" in="SourceGraphic" in2="effect1_dropShadow_102_272" result="shape"/>
</filter>
<filter id="filter7_d_102_272" x="154.375" y="248.625" width="18.85" height="18.85" filterUnits="userSpaceOnUse" color-interpolation-filters="sRGB">
<feFlood flood-opacity="0" result="BackgroundImageFix"/>
<feColorMatrix in="SourceAlpha" type="matrix" values="0 0 0 0 0 0 0 0 0 0 0 0 0 0 0 0 0 0 127 0" result="hardAlpha"/>
<feOffset dy="1.3"/>
<feGaussianBlur stdDeviation="0.65"/>
<feComposite in2="hardAlpha" operator="out"/>
<feColorMatrix type="matrix" values="0 0 0 0 0 0 0 0 0 0 0 0 0 0 0 0 0 0 0.25 0"/>
<feBlend mode="normal" in2="BackgroundImageFix" result="effect1_dropShadow_102_272"/>
<feBlend mode="normal" in="SourceGraphic" in2="effect1_dropShadow_102_272" result="shape"/>
</filter>
<filter id="filter8_d_102_272" x="258.05" y="248.3" width="18.85" height="18.85" filterUnits="userSpaceOnUse" color-interpolation-filters="sRGB">
<feFlood flood-opacity="0" result="BackgroundImageFix"/>
<feColorMatrix in="SourceAlpha" type="matrix" values="0 0 0 0 0 0 0 0 0 0 0 0 0 0 0 0 0 0 127 0" result="hardAlpha"/>
<feOffset dy="1.3"/>
<feGaussianBlur stdDeviation="0.65"/>
<feComposite in2="hardAlpha" operator="out"/>
<feColorMatrix type="matrix" values="0 0 0 0 0 0 0 0 0 0 0 0 0 0 0 0 0 0 0.25 0"/>
<feBlend mode="normal" in2="BackgroundImageFix" result="effect1_dropShadow_102_272"/>
<feBlend mode="normal" in="SourceGraphic" in2="effect1_dropShadow_102_272" result="shape"/>
</filter>
<linearGradient id="paint0_linear_102_272" x1="17.2249" y1="50.375" x2="46.1499" y2="56.225" gradientUnits="userSpaceOnUse">
<stop stop-color="#CE646B"/>
<stop offset="1" stop-color="#CD9094"/>
</linearGradient>
<linearGradient id="paint1_linear_102_272" x1="100.1" y1="50.4881" x2="71.1748" y2="56.3381" gradientUnits="userSpaceOnUse">
<stop stop-color="#CE646B"/>
<stop offset="1" stop-color="#CD9094"/>
</linearGradient>
<linearGradient id="paint2_linear_102_272" x1="122.525" y1="50.375" x2="151.45" y2="56.225" gradientUnits="userSpaceOnUse">
<stop stop-color="#280F12"/>
<stop offset="1" stop-color="#493235"/>
</linearGradient>
<linearGradient id="paint3_linear_102_272" x1="205.4" y1="50.4881" x2="176.475" y2="56.3381" gradientUnits="userSpaceOnUse">
<stop stop-color="#280F12"/>
<stop offset="1" stop-color="#493235"/>
</linearGradient>
<linearGradient id="paint4_linear_102_272" x1="227.825" y1="50.375" x2="256.75" y2="56.225" gradientUnits="userSpaceOnUse">
<stop stop-color="#3F1700"/>
<stop offset="1" stop-color="#FBEADC"/>
</linearGradient>
<linearGradient id="paint5_linear_102_272" x1="310.7" y1="50.4881" x2="281.775" y2="56.3381" gradientUnits="userSpaceOnUse">
<stop stop-color="#3F1700"/>
<stop offset="1" stop-color="#FBEADC"/>
</linearGradient>
<radialGradient id="paint6_radial_102_272" cx="0" cy="0" r="1" gradientUnits="userSpaceOnUse" gradientTransform="translate(59.5084 222.995) rotate(-90) scale(16.9321 41.6286)">
<stop stop-color="#501911"/>
<stop offset="1" stop-color="#CE260E"/>
</radialGradient>
<radialGradient id="paint7_radial_102_272" cx="0" cy="0" r="1" gradientUnits="userSpaceOnUse" gradientTransform="translate(164.484 222.995) rotate(-90) scale(16.9321 41.6286)">
<stop stop-color="#2E0200"/>
<stop offset="1" stop-color="#BF6561"/>
</radialGradient>
<radialGradient id="paint8_radial_102_272" cx="0" cy="0" r="1" gradientUnits="userSpaceOnUse" gradientTransform="translate(269.459 222.995) rotate(-90) scale(16.9321 41.6286)">
<stop stop-color="#390700"/>
<stop offset="1" stop-color="#98352C"/>
</radialGradient>
</defs>
</svg>
